<?xml version="1.0" encoding="utf-8"?>
<!-- Generator: Adobe Illustrator 19.2.1, SVG Export Plug-In . SVG Version: 6.00 Build 0)  -->
<svg version="1.1" id="Layer_1" xmlns="http://www.w3.org/2000/svg" xmlns:xlink="http://www.w3.org/1999/xlink" x="0px" y="0px"
	 viewBox="0 0 179.9 132.4" style="enable-background:new 0 0 179.9 132.4;" xml:space="preserve">
<style type="text/css">
	.st0{fill:#fff;}
</style>
<g>
	<path class="st0" d="M57.9,132.4H32.6V37.1c-9.2,8.6-20.1,15-32.6,19.2V33.4c6.6-2.2,13.8-6.3,21.5-12.3c7.7-6,13-13.1,15.9-21.1
		h20.5V132.4z"/>
	<path class="st0" d="M87.8,79.7v-19h19v19H87.8z M87.8,132.4v-19h19v19H87.8z"/>
	<path class="st0" d="M179.9,132.4h-25.3V37.1c-9.2,8.6-20.1,15-32.6,19.2V33.4c6.6-2.2,13.8-6.3,21.5-12.3c7.7-6,13-13.1,15.9-21.1
		h20.5V132.4z"/>
</g>
</svg>
